<?xml version="1.0" standalone="no"?>
<!DOCTYPE svg PUBLIC "-//W3C//DTD SVG 20010904//EN"
 "http://www.w3.org/TR/2001/REC-SVG-20010904/DTD/svg10.dtd">
<svg version="1.0" xmlns="http://www.w3.org/2000/svg"
 width="500.000000pt" height="500.000000pt" viewBox="0 0 500.000000 500.000000"
 preserveAspectRatio="xMidYMid meet">
<metadata>
Created by potrace 1.11, written by Peter Selinger 2001-2013
</metadata>
<g transform="translate(0.000000,500.000000) scale(0.100000,-0.100000)"
fill="#000000" stroke="none">
<path d="M2395 4940 c-44 -3 -97 -6 -118 -5 -20 0 -37 -2 -37 -5 0 -3 -12 -6
-27 -7 -46 -1 -146 -14 -156 -20 -4 -2 -18 -6 -30 -7 -52 -6 -275 -65 -322
-85 -11 -4 -58 -23 -105 -41 -94 -36 -288 -130 -331 -161 -15 -10 -30 -19 -33
-19 -12 0 -160 -103 -256 -178 -95 -74 -308 -283 -365 -357 -16 -21 -35 -43
-40 -49 -6 -6 -17 -21 -25 -32 -85 -121 -128 -186 -149 -224 -13 -25 -27 -47
-30 -50 -6 -4 -93 -178 -96 -190 0 -3 -9 -23 -19 -45 -44 -96 -66 -155 -59
-155 3 0 1 -6 -4 -12 -9 -12 -24 -57 -28 -83 -1 -5 -5 -18 -9 -27 -4 -9 -9
-25 -11 -35 -2 -10 -4 -18 -5 -18 -2 0 -1 2 -29 -125 -11 -52 -23 -120 -27
-150 -4 -30 -8 -66 -10 -80 -23 -163 -23 -299 0 -530 2 -24 19 -140 21 -150 1
-3 5 -27 10 -55 10 -57 10 -55 18 -75 5 -14 12 -46 21 -95 6 -28 64 -196 76
-217 6 -10 10 -23 10 -29 0 -6 22 -58 50 -116 27 -58 50 -106 50 -108 0 -11
142 -245 186 -305 105 -146 290 -348 388 -423 16 -12 44 -35 63 -52 51 -43
206 -155 217 -155 5 0 17 -7 27 -16 48 -44 407 -216 474 -228 6 -1 15 -5 21
-8 13 -8 150 -48 234 -68 19 -5 46 -11 60 -15 14 -3 39 -8 55 -10 17 -2 44 -6
60 -8 36 -7 127 -18 175 -23 19 -2 55 -6 80 -9 61 -8 210 -11 210 -5 0 3 15 6
33 7 17 0 57 3 87 7 30 3 78 8 105 11 28 3 57 7 65 10 8 2 35 7 60 10 25 3 72
13 105 22 33 8 69 17 81 19 12 2 40 11 63 19 23 8 45 14 49 13 4 -1 24 6 46
15 21 9 42 17 45 17 9 0 119 44 189 76 28 13 54 24 57 24 2 1 32 16 66 35 33
19 65 35 70 35 5 0 9 5 9 10 0 6 5 10 11 10 20 0 209 129 308 210 111 90 231
207 312 300 65 75 159 197 159 205 0 3 18 30 40 60 22 30 40 57 40 60 0 3 11
22 23 43 73 115 193 385 212 475 4 18 11 37 15 42 4 6 13 33 19 60 6 28 14 59
17 70 9 31 42 209 49 265 2 14 6 50 9 80 3 30 9 78 12 105 12 91 9 172 -12
340 -2 17 -6 53 -8 80 -7 70 -34 213 -56 295 -7 25 -13 50 -14 55 -4 23 -70
214 -93 270 -37 91 -146 305 -155 305 -4 0 -8 4 -8 10 0 23 -153 242 -233 334
-146 169 -339 340 -511 454 -45 30 -99 63 -121 73 -22 11 -72 36 -111 57 -118
62 -317 146 -369 156 -5 1 -16 5 -22 9 -7 5 -13 6 -13 2 0 -3 -8 -1 -18 4 -11
6 -30 12 -43 15 -13 3 -44 10 -69 17 -25 6 -54 12 -65 15 -11 2 -40 8 -65 14
-44 10 -99 18 -170 25 -19 2 -35 4 -35 5 0 0 -31 3 -70 5 -38 2 -99 6 -135 8
-36 2 -101 1 -145 -3z m306 -450 c104 -10 196 -27 329 -60 146 -36 484 -190
589 -267 167 -123 337 -282 442 -413 274 -342 434 -797 434 -1235 0 -87 -12
-263 -19 -274 -2 -3 -7 -28 -10 -56 -17 -128 -111 -425 -159 -505 -12 -19 -21
-36 -19 -38 5 -5 -115 -216 -141 -247 -4 -5 -26 -35 -49 -65 -173 -235 -450
-467 -714 -599 -142 -70 -424 -161 -545 -176 -30 -3 -61 -8 -69 -10 -22 -6
-219 -26 -265 -26 -44 -1 -261 19 -285 26 -8 2 -39 7 -69 10 -30 4 -110 22
-178 41 -516 141 -949 476 -1208 933 -105 186 -199 435 -224 593 l-8 48 321 1
c177 1 326 1 331 0 11 -1 61 121 56 135 -1 4 1 10 6 13 5 3 21 40 36 81 78
209 80 210 119 50 15 -63 30 -126 33 -140 6 -34 12 -59 24 -97 5 -18 8 -33 6
-33 -3 0 0 -11 5 -25 5 -13 23 -84 41 -157 33 -144 37 -158 43 -188 3 -11 8
-24 11 -30 3 -5 8 -24 10 -42 1 -18 8 -55 15 -83 6 -27 13 -57 15 -65 2 -8 11
-44 20 -80 9 -36 19 -76 21 -90 3 -14 7 -32 11 -40 3 -8 7 -22 8 -30 4 -26 61
-259 96 -395 26 -104 27 -108 28 -123 1 -7 5 -11 10 -7 6 3 9 13 9 23 0 9 13
59 31 110 17 51 31 99 31 107 0 8 5 15 11 15 5 0 7 5 4 10 -4 6 -1 17 5 25 7
8 10 15 6 15 -3 0 0 15 7 33 8 17 15 37 16 42 1 6 27 87 57 180 31 94 57 175
58 180 1 6 15 48 29 95 15 47 27 88 27 92 1 4 7 23 15 42 8 18 11 36 8 40 -4
3 -1 6 5 6 7 0 11 3 10 8 -2 6 83 281 99 322 3 8 5 19 4 24 -2 10 18 36 29 36
4 0 18 -28 31 -62 12 -35 28 -66 33 -70 6 -4 8 -8 3 -8 -4 0 0 -17 9 -38 9
-20 17 -41 18 -47 1 -5 10 -27 19 -49 9 -21 17 -40 17 -42 0 -1 5 -15 12 -31
13 -32 17 -44 19 -60 1 -5 6 -17 12 -28 6 -11 12 -24 13 -30 5 -19 85 -230 94
-247 6 -10 10 -24 10 -32 0 -7 7 -19 15 -26 14 -12 18 -5 14 26 0 4 3 10 8 13
5 3 24 42 43 86 18 44 37 84 42 89 4 6 8 18 8 28 0 10 5 18 10 18 6 0 9 3 8 8
-1 4 6 24 15 46 9 21 17 40 17 43 0 2 17 41 38 86 22 45 54 118 72 162 19 44
38 86 43 93 8 9 51 12 180 10 155 -3 171 -5 181 -22 22 -39 77 -100 118 -131
31 -24 128 -64 182 -75 64 -13 166 -7 213 12 15 6 34 12 41 14 31 6 111 61
153 105 124 130 155 331 77 497 -26 54 -37 69 -95 128 -44 44 -150 103 -194
108 -14 1 -30 5 -36 9 -15 9 -177 2 -194 -9 -8 -5 -20 -9 -27 -10 -55 -9 -167
-90 -214 -156 -17 -24 -36 -46 -42 -50 -6 -4 -67 -7 -136 -7 -475 0 -471 1
-477 -21 -7 -28 -21 -25 -35 8 -6 15 -16 41 -23 57 -53 124 -65 156 -65 170 0
8 -5 15 -10 15 -6 0 -9 3 -9 8 1 4 0 10 -1 15 -1 4 -3 10 -5 15 -1 4 -7 21
-14 37 -6 17 -23 59 -36 95 -13 36 -30 79 -36 95 -7 17 -13 32 -14 35 -1 3 -5
13 -8 22 -4 10 -10 26 -14 35 -3 10 -7 20 -7 23 -1 5 -64 167 -87 225 -7 17
-13 36 -15 44 -4 20 -26 41 -23 21 3 -19 -10 -67 -71 -250 -54 -164 -113 -354
-111 -358 1 -1 -6 -19 -15 -40 -8 -20 -18 -46 -20 -57 -7 -28 -10 -38 -17 -55
-9 -21 -58 -178 -58 -187 -1 -5 -5 -16 -11 -26 -8 -16 -11 -27 -21 -72 -2 -5
-6 -16 -11 -23 -4 -7 -6 -16 -2 -19 6 -7 -19 -33 -32 -33 -8 0 -14 17 -27 75
-1 6 -3 12 -4 15 -1 3 -4 16 -6 30 -2 14 -20 88 -40 165 -19 77 -38 153 -40
169 -2 16 -9 43 -14 60 -10 30 -19 70 -26 111 -2 11 -4 22 -6 25 -1 3 -3 10
-4 15 -1 6 -5 17 -8 25 -4 12 -24 90 -32 130 -1 3 -10 41 -20 85 -11 44 -18
83 -17 88 1 4 -2 7 -7 7 -5 0 -8 8 -6 18 1 9 -1 22 -5 27 -4 6 -7 17 -8 25 0
8 -11 60 -25 115 -14 55 -31 127 -38 160 -7 33 -15 62 -18 65 -3 3 -7 14 -8
25 0 11 -4 34 -8 50 -4 17 -8 37 -10 45 -2 8 -4 16 -5 18 -3 3 -7 19 -9 32 0
6 -6 10 -12 10 -5 0 -7 -4 -4 -10 3 -5 1 -10 -4 -10 -6 0 -11 -5 -11 -10 0
-11 -154 -428 -176 -478 -9 -18 -17 -40 -19 -50 -3 -15 -94 -259 -112 -302 -3
-8 -7 -17 -8 -20 -1 -3 -4 -12 -8 -20 -11 -28 -110 -294 -139 -375 -16 -44
-35 -84 -42 -90 -8 -6 -94 -10 -212 -10 l-199 1 0 39 c5 345 159 775 388 1079
29 38 57 75 62 83 31 45 163 177 250 250 247 207 538 355 835 423 132 30 162
34 325 46 55 3 102 8 104 10 4 4 46 1 232 -16z"/>
</g>
</svg>
